#!OML:ASF E:\Steps\Project 1\Capture day 1\Session 2\Subject.ASF
:FULLY-SPECIFIED
:DEGREES
152
root 9.15949 16.2788 30.9639 -150.88 -0.750193 177.382
lowerback -29.5614 -1.5628 -6.66408
upperback -1.63468 -0.539168 -0.100769
thorax 13.7717 -0.945421 3.23003
lowerneck -4.5222 -2.01792 -1.11676
upperneck 20.5094 -4.86913 3.78362
head 7.12586 -2.65038 0.981012
rclavicle -2.6339e-015 9.24349e-015
rhumerus -42.8074 -26.5601 -69.1249
rradius 30.3298
rwrist 0.231396
rhand -5.7908 -51.4577
rfingers 7.12502
rthumb 20.0334 -80.4449
lclavicle -2.6339e-015 9.24349e-015
lhumerus -31.4294 7.13949 79.7435
lradius 25.4522
lwrist -5.76169
lhand -21.2806 -10.2495
lfingers 7.12502
lthumb 5.10341 19.6691
rfemur -25.5964 7.11411 20.1937
rtibia 8.86287
rfoot -21.8183 -11.732
rtoes -33.3316
lfemur -27.111 -10.1913 -17.7182
ltibia 10.218
lfoot -10.197 5.90491
ltoes -43.6082
153
root 9.16677 16.276 30.9618 -150.868 -0.775077 177.354
lowerback -29.5822 -1.60732 -6.72052
upperback -1.61659 -0.57869 -0.0622301
thorax 13.8066 -0.967763 3.2869
lowerneck -4.21733 -2.19409 -1.27583
upperneck 20.0886 -5.09441 4.0144
head 6.95102 -2.75214 1.07436
rclavicle -6.21202e-016 1.2921e-014
rhumerus -42.7172 -26.2605 -69.2985
rradius 30.5047
rwrist 0.133077
rhand -5.70527 -51.539
rfingers 7.12502
rthumb 20.1157 -80.5176
lclavicle -6.21202e-016 1.2921e-014
lhumerus -31.3326 7.14543 79.8252
lradius 25.6257
lwrist -5.72501
lhand -21.1276 -10.3122
lfingers 7.12502
lthumb 5.25117 19.6027
rfemur -25.2955 6.94263 20.2371
rtibia 8.22666
rfoot -21.5506 -11.539
rtoes -33.304
lfemur -27.1539 -10.1091 -17.7449
ltibia 10.3117
lfoot -10.2847 5.85398
ltoes -43.3534
154
root 9.17294 16.2779 30.9591 -150.96 -0.819714 177.395
lowerback -29.4955 -1.64221 -6.71141
upperback -1.56445 -0.625797 -0.00584035
thorax 13.8346 -0.986056 3.3277
lowerneck -3.99751 -2.14654 -1.25532
upperneck 19.6538 -4.95025 3.9735
head 6.76582 -2.67692 1.0773
rclavicle 5.64051e-015 -2.67365e-014
rhumerus -42.5332 -25.9785 -69.4942
rradius 30.6418
rwrist 0.0885842
rhand -5.6815 -51.6329
rfingers 7.12502
rthumb 20.1385 -80.6091
lclavicle 5.64051e-015 -2.67365e-014
lhumerus -31.2 7.40986 79.7935
lradius 25.6933
lwrist -5.9438
lhand -21.1826 -10.7323
lfingers 7.12502
lthumb 5.19807 19.1839
rfemur -24.0771 6.39514 20.4351
rtibia 5.89943
rfoot -20.4664 -11.0032
rtoes -33.9782
lfemur -27.0706 -9.99389 -17.7114
ltibia 10.3732
lfoot -10.3234 5.77486
ltoes -43.623
155
root 9.17882 16.2769 30.9589 -150.936 -0.852887 177.453
lowerback -29.5166 -1.63239 -6.67343
upperback -1.55322 -0.626511 0.033982
thorax 13.8585 -0.985005 3.35017
lowerneck -3.85839 -2.1501 -1.28284
upperneck 19.283 -4.90542 4.05156
head 6.62332 -2.64356 1.11655
rclavicle 6.21202e-016 1.5207e-014
rhumerus -42.3826 -25.7945 -69.6309
rradius 30.7548
rwrist -0.125457
rhand -5.74782 -51.5468
rfingers 7.12502
rthumb 20.0748 -80.5297
lclavicle 6.21202e-016 1.5207e-014
lhumerus -31.1389 7.44754 79.8578
lradius 25.8745
lwrist -6.02327
lhand -21.2389 -10.613
lfingers 7.12502
lthumb 5.14363 19.3046
rfemur -24.1834 5.82662 20.6727
rtibia 6.06037
rfoot -20.5545 -10.3809
rtoes -33.4618
lfemur -27.161 -9.84854 -17.6248
ltibia 10.4853
lfoot -10.321 5.66335
ltoes -44.0967
156
root 9.18311 16.2751 30.9568 -150.961 -0.83007 177.48
lowerback -29.5072 -1.56765 -6.61808
upperback -1.54461 -0.555632 0.0120494
thorax 13.8567 -0.948641 3.32442
lowerneck -3.88612 -2.19172 -1.34229
upperneck 19.2816 -4.97796 4.16542
head 6.63407 -2.67326 1.15716
rclavicle -6.01324e-015 -9.14409e-015
rhumerus -42.3713 -25.6847 -69.7286
rradius 30.9058
rwrist -0.407638
rhand -5.74764 -51.3557
rfingers 7.12502
rthumb 20.0749 -80.3386
lclavicle -6.01324e-015 -9.14409e-015
lhumerus -31.1011 7.24421 79.9303
lradius 26.0799
lwrist -5.92802
lhand -21.3116 -10.374
lfingers 7.12502
lthumb 5.07347 19.5453
rfemur -24.2395 5.49397 20.7951
rtibia 6.23207
rfoot -20.5638 -9.96236
rtoes -33.1364
lfemur -27.2028 -9.86994 -17.5657
ltibia 10.6451
lfoot -10.3953 5.66663
ltoes -43.8478
157
root 9.18895 16.2728 30.9635 -150.849 -0.907627 177.411
lowerback -29.5048 -1.57151 -6.65403
upperback -1.58489 -0.550159 -0.0464166
thorax 13.8066 -0.947691 3.28163
lowerneck -3.86056 -2.24207 -1.19262
upperneck 19.3114 -5.05011 4.05231
head 6.63544 -2.70819 1.09102
rclavicle 4.67144e-015 -1.41137e-014
rhumerus -42.385 -25.759 -69.8222
rradius 31.0216
rwrist -0.380431
rhand -5.65232 -51.2547
rfingers 7.12502
rthumb 20.1666 -80.228
lclavicle 4.67144e-015 -1.41137e-014
lhumerus -31.0538 6.83965 79.9473
lradius 26.3188
lwrist -5.61031
lhand -21.3199 -10.5153
lfingers 7.12502
lthumb 5.06546 19.4041
rfemur -24.4375 5.54373 20.7348
rtibia 6.35437
rfoot -20.5826 -10.1349
rtoes -33.4256
lfemur -27.5492 -9.99974 -17.5418
ltibia 11.0155
lfoot -10.5542 5.6522
ltoes -43.3953
158
root 9.19281 16.2731 30.9576 -151.035 -0.840338 177.498
lowerback -29.3896 -1.50216 -6.56112
upperback -1.52876 -0.480091 -0.0648621
thorax 13.8131 -0.905789 3.24177
lowerneck -3.7181 -2.24946 -1.05637
upperneck 19.2401 -5.05501 3.95906
head 6.58248 -2.7121 1.04138
rclavicle 6.23687e-015 1.0635e-014
rhumerus -42.3209 -25.7449 -69.9532
rradius 31.1144
rwrist -0.315932
rhand -5.5148 -51.3909
rfingers 7.12502
rthumb 20.2987 -80.3502
lclavicle 6.23687e-015 1.0635e-014
lhumerus -31.0688 6.39214 80.0102
lradius 26.6422
lwrist -5.20117
lhand -21.2995 -10.6463
lfingers 7.12502
lthumb 5.08521 19.2726
rfemur -24.1925 5.92029 20.7758
rtibia 6.31522
rfoot -20.6352 -10.3549
rtoes -33.5465
lfemur -27.3496 -10.1719 -17.4212
ltibia 11.0915
lfoot -10.7 5.94149
ltoes -43.7631
159
root 9.20008 16.2706 30.9552 -151.089 -0.788324 177.564
lowerback -29.3458 -1.49351 -6.57303
upperback -1.49329 -0.464617 -0.0184074
thorax 13.8338 -0.898684 3.30626
lowerneck -3.701 -2.22269 -1.06377
upperneck 19.2621 -5.01717 3.93512
head 6.58495 -2.69731 1.03771
rclavicle 2.78299e-015 -6.85807e-015
rhumerus -42.1695 -25.3546 -70.2355
rradius 31.3441
rwrist -0.577782
rhand -5.47624 -51.3621
rfingers 7.12502
rthumb 20.3358 -80.3174
lclavicle 2.78299e-015 -6.85807e-015
lhumerus -31.0601 6.12758 80.1299
lradius 26.9525
lwrist -4.96589
lhand -21.2898 -10.6944
lfingers 7.12502
lthumb 5.09449 19.2244
rfemur -24.1636 6.16931 20.8136
rtibia 6.38456
rfoot -20.7227 -10.4317
rtoes -33.3957
lfemur -27.2645 -10.3392 -17.2755
ltibia 11.0701
lfoot -10.7909 6.1899
ltoes -44.0001
160
root 9.2074 16.2701 30.9531 -151.154 -0.780609 177.47
lowerback -29.2974 -1.50471 -6.62807
upperback -1.47798 -0.450035 -0.105685
thorax 13.8259 -0.892547 3.24752
lowerneck -3.54253 -2.21842 -1.03451
upperneck 19.1711 -5.03295 4.03521
head 6.53045 -2.70105 1.06708
rclavicle 3.2551e-015 -8.84592e-015
rhumerus -42.1289 -24.9971 -70.6362
rradius 31.5784
rwrist -0.897519
rhand -5.58749 -51.1413
rfingers 7.12502
rthumb 20.2289 -80.108
lclavicle 3.2551e-015 -8.84592e-015
lhumerus -31.1035 5.80351 80.1082
lradius 27.217
lwrist -4.76706
lhand -21.2578 -10.5398
lfingers 7.12502
lthumb 5.12546 19.3782
rfemur -24.1282 5.97699 20.7949
rtibia 6.50438
rfoot -20.8382 -10.2068
rtoes -33.1881
lfemur -27.4982 -10.3193 -17.3967
ltibia 11.703
lfoot -11.1665 6.0618
ltoes -43.6256
161
root 9.2109 16.2696 30.9421 -151.314 -0.705412 177.427
lowerback -29.287 -1.50081 -6.61518
upperback -1.4014 -0.432096 -0.123189
thorax 13.9082 -0.882306 3.22974
lowerneck -3.69802 -2.15661 -1.03746
upperneck 19.269 -4.94295 3.99669
head 6.58549 -2.65639 1.05804
rclavicle 4.57205e-015 3.06128e-014
rhumerus -41.9203 -24.9661 -70.7689
rradius 31.5514
rwrist -0.76145
rhand -5.59831 -51.4497
rfingers 7.12502
rthumb 20.2185 -80.4174
lclavicle 4.57205e-015 3.06128e-014
lhumerus -31.1085 5.73644 80.1416
lradius 27.4135
lwrist -4.63394
lhand -21.2696 -10.3977
lfingers 7.12502
lthumb 5.11408 19.5206
rfemur -23.9275 5.8265 20.8017
rtibia 6.53768
rfoot -21.009 -9.98034
rtoes -33.1987
lfemur -27.3792 -10.2903 -17.5271
ltibia 11.9448
lfoot -11.2399 6.14896
ltoes -44.3515
162
root 9.21642 16.2678 30.9389 -151.367 -0.673581 177.394
lowerback -29.2892 -1.51014 -6.63717
upperback -1.34035 -0.429903 -0.0762112
thorax 13.9809 -0.882961 3.29468
lowerneck -4.00056 -2.05863 -1.25266
upperneck 19.5388 -4.81043 4.02719
head 6.72633 -2.59907 1.10569
rclavicle -4.19933e-015 -3.67752e-015
rhumerus -41.6789 -25.103 -70.7122
rradius 31.4934
rwrist -0.382025
rhand -5.53698 -52.0557
rfingers 7.12502
rthumb 20.2774 -81.0172
lclavicle -4.19933e-015 -3.67752e-015
lhumerus -31.0116 5.83255 80.2477
lradius 27.5372
lwrist -4.65364
lhand -21.2533 -10.5216
lfingers 7.12502
lthumb 5.12979 19.3963
rfemur -23.8736 5.99635 20.7346
rtibia 6.54039
rfoot -21.1163 -10.1498
rtoes -33.2626
lfemur -27.484 -10.3208 -17.5539
ltibia 12.3201
lfoot -11.304 6.31974
ltoes -45.3677
163
root 9.22229 16.2651 30.9425 -151.336 -0.696443 177.42
lowerback -29.2589 -1.47181 -6.60282
upperback -1.3398 -0.395189 -0.0432218
thorax 13.9651 -0.864568 3.3263
lowerneck -4.0946 -2.05768 -1.31968
upperneck 19.6365 -4.80505 4.00624
head 6.77499 -2.60067 1.10825
rclavicle 4.99446e-015 6.26172e-015
rhumerus -41.5758 -25.0851 -70.701
rradius 31.5771
rwrist -0.314736
rhand -5.90949 -51.5821
rfingers 7.12502
rthumb 19.9194 -80.5813
lclavicle 4.99446e-015 6.26172e-015
lhumerus -30.8153 5.90559 80.3423
lradius 27.4448
lwrist -4.90075
lhand -21.1887 -10.2905
lfingers 7.12502
lthumb 5.19213 19.6259
rfemur -23.8582 6.16494 20.7855
rtibia 6.46658
rfoot -21.1478 -10.2181
rtoes -33.1759
lfemur -27.7831 -10.3572 -17.4617
ltibia 12.8566
lfoot -11.5236 6.33854
ltoes -45.5316
164
root 9.22417 16.2619 30.9452 -151.355 -0.818981 177.551
lowerback -29.1715 -1.42029 -6.36641
upperback -1.36994 -0.416689 -0.013552
thorax 13.8951 -0.857094 3.22375
lowerneck -4.21036 -1.95587 -1.2661
upperneck 19.9599 -4.68335 3.83549
head 6.89094 -2.55689 1.04835
rclavicle -6.4605e-016 6.85807e-015
rhumerus -41.4795 -24.9424 -70.789
rradius 31.6554
rwrist -0.263593
rhand -7.1049 -49.0087
rfingers 7.12502
rthumb 18.7699 -78.1231
lclavicle -6.4605e-016 6.85807e-015
lhumerus -30.6292 6.09492 80.3253
lradius 27.1789
lwrist -5.23186
lhand -21.5314 -10.6203
lfingers 7.12502
lthumb 4.86127 19.3039
rfemur -23.9154 6.08113 21.0175
rtibia 6.67494
rfoot -21.3554 -10.0827
rtoes -33.3538
lfemur -28.0785 -10.5239 -17.2215
ltibia 13.4501
lfoot -11.7509 6.42939
ltoes -45.7195
165
root 9.22823 16.2592 30.9461 -151.389 -0.872439 177.648
lowerback -29.0702 -1.39066 -6.18931
upperback -1.39122 -0.445979 0.0128752
thorax 13.829 -0.856807 3.14694
lowerneck -4.07658 -2.05503 -1.32558
upperneck 19.7174 -4.8036 3.93772
head 6.79628 -2.60912 1.08679
rclavicle -4.5969e-015 2.34566e-014
rhumerus -41.412 -24.5112 -71.055
rradius 31.9213
rwrist -0.397066
rhand -7.38159 -50.1576
rfingers 7.12502
rthumb 18.5038 -79.2975
lclavicle -4.5969e-015 2.34566e-014
lhumerus -30.5377 6.40565 80.2552
lradius 27.0539
lwrist -5.49648
lhand -21.7364 -10.7421
lfingers 7.12502
lthumb 4.66333 19.1866
rfemur -23.984 6.00642 21.1835
rtibia 6.84968
rfoot -21.4547 -9.9993
rtoes -33.4029
lfemur -28.3784 -10.6326 -17.0435
ltibia 14.0973
lfoot -11.9579 6.55536
ltoes -46.3375
166
root 9.23519 16.2586 30.9466 -151.421 -0.83617 177.64
lowerback -28.9511 -1.37719 -6.1457
upperback -1.37849 -0.440908 -0.013022
thorax 13.7888 -0.847817 3.09936
lowerneck -4.03753 -2.04421 -1.44846
upperneck 19.4645 -4.78016 4.1834
head 6.7156 -2.58127 1.19093
rclavicle 2.48481e-015 1.09332e-015
rhumerus -41.3485 -23.933 -71.4897
rradius 32.3331
rwrist -0.79899
rhand -7.1731 -49.9392
rfingers 7.12502
rthumb 18.7043 -79.0599
lclavicle 2.48481e-015 1.09332e-015
lhumerus -30.4771 6.45907 80.2149
lradius 27.1531
lwrist -5.52023
lhand -21.7424 -10.7785
lfingers 7.12502
lthumb 4.65752 19.1504
rfemur -24.0147 6.07411 21.1821
rtibia 6.94733
rfoot -21.4884 -9.93063
rtoes -32.7612
lfemur -28.6641 -10.6045 -17.0442
ltibia 14.7295
lfoot -12.0511 6.54115
ltoes -47.1957
